HIERARCHY
ROOT RootJoint
{
    OFFSET   0.000000   0.000000   0.000000
    CHANNELS 6 Xposition Yposition Zposition Xrotation Yrotation Zrotation
    JOINT pelvis_lowerback
    {
        OFFSET   0.000000   0.093605   0.000000
        CHANNELS 3 Xrotation Yrotation Zrotation
        JOINT lowerback_torso
        {
            OFFSET   0.000000   0.100000   0.000000
            CHANNELS 3 Xrotation Yrotation Zrotation
            JOINT torso_head
            {
                OFFSET   0.000000   0.282350   0.000000
                CHANNELS 3 Xrotation Yrotation Zrotation
                End Site
                {
                    OFFSET   0.000000   0.192650   0.000000
                }
            }
            JOINT rTorso_Clavicle
            {
                OFFSET  -0.001000   0.157500   0.000000
                CHANNELS 3 Xrotation Yrotation Zrotation
                JOINT rShoulder
                {
                    OFFSET  -0.117647   0.000000   0.000000
                    CHANNELS 3 Xrotation Yrotation Zrotation
                    JOINT rElbow
                    {
                        OFFSET  -0.245000   0.000000   0.000000
                        CHANNELS 3 Xrotation Yrotation Zrotation
                        JOINT rWrist
                        {
                            OFFSET  -0.240000   0.000000   0.000000
                            CHANNELS 3 Xrotation Yrotation Zrotation
                            End Site
                            {
                                OFFSET  -0.116353  -0.002500   0.000000
                            }
                        }
                    }
                }
            }
            JOINT lTorso_Clavicle
            {
                OFFSET   0.001000   0.157500   0.000000
                CHANNELS 3 Xrotation Yrotation Zrotation
                JOINT lShoulder
                {
                    OFFSET   0.117647   0.000000   0.000000
                    CHANNELS 3 Xrotation Yrotation Zrotation
                    JOINT lElbow
                    {
                        OFFSET   0.245000   0.000000   0.000000
                        CHANNELS 3 Xrotation Yrotation Zrotation
                        JOINT lWrist
                        {
                            OFFSET   0.240000   0.000000   0.000000
                            CHANNELS 3 Xrotation Yrotation Zrotation
                            End Site
                            {
                                OFFSET   0.116353  -0.002500   0.000000
                            }
                        }
                    }
                }
            }
        }
    }
    JOINT rHip
    {
        OFFSET  -0.100000  -0.051395   0.000000
        CHANNELS 3 Xrotation Yrotation Zrotation
        JOINT rKnee
        {
            OFFSET   0.000000  -0.410000   0.000000
            CHANNELS 3 Xrotation Yrotation Zrotation
            JOINT rAnkle
            {
                OFFSET   0.000000  -0.390000   0.000000
                CHANNELS 3 Xrotation Yrotation Zrotation
                JOINT rToeJoint
                {
                    OFFSET   0.000000  -0.050000   0.130000
                    CHANNELS 3 Xrotation Yrotation Zrotation
                    End Site
                    {
                        OFFSET  -0.010000   0.002000   0.060000
                    }
                }
            }
        }
    }
    JOINT lHip
    {
        OFFSET   0.100000  -0.051395   0.000000
        CHANNELS 3 Xrotation Yrotation Zrotation
        JOINT lKnee
        {
            OFFSET   0.000000  -0.410000   0.000000
            CHANNELS 3 Xrotation Yrotation Zrotation
            JOINT lAnkle
            {
                OFFSET   0.000000  -0.390000   0.000000
                CHANNELS 3 Xrotation Yrotation Zrotation
                JOINT lToeJoint
                {
                    OFFSET   0.000000  -0.050000   0.130000
                    CHANNELS 3 Xrotation Yrotation Zrotation
                    End Site
                    {
                        OFFSET   0.010000   0.002000   0.060000
                    }
                }
            }
        }
    }
}
MOTION
Frames: 12
Frame Time:   0.008333
 -2.376719   0.925631   3.975860   0.000000   0.000000   0.000000   0.000000   0.000000   0.000000   0.000000   0.000000   0.000000   0.000000   0.000000   0.000000   0.000000   0.000000   0.000000   0.000000   0.000000   0.000000   0.000000   0.000000   0.000000   0.000000   0.000000   0.000000   0.000000   0.000000   0.000000   0.000000   0.000000   0.000000   0.000000   0.000000   0.000000   0.000000   0.000000   0.000000   0.000000   0.000000   0.000000   0.000000   0.000000   0.000000   0.000000   0.000000   0.000000   0.000000   0.000000   0.000000   0.000000   0.000000   0.000000   0.000000   0.000000   0.000000   0.000000   0.000000   0.000000   0.000000   0.000000   0.000000
 -2.376709   0.926170   3.975969  -0.002036   0.146266  -0.013153  -0.050533   0.005209   0.003070   0.041805  -0.183393   0.008864  -0.123537   0.094392   0.048579   0.157819  -0.264125   0.199151   0.649943   0.296725   2.171958   0.009973   0.480752  -0.003381   0.282486  -0.296136  -2.657499   0.177833   0.228479  -0.419393   0.975570  -0.220392  -2.011343   0.010648  -0.499908   0.005027   0.376986   0.241260   2.795866  -0.163264   0.015434  -0.108550   0.648240   0.000693   0.000910  -0.762263  -0.273903   0.002711  -0.196417  -0.000201   0.000191  -0.229550  -0.184736   0.158462   0.766722  -0.000978  -0.000249  -0.965473   0.229700   0.071992   0.277044  -0.000523   0.000462
 -2.376747   0.927101   3.976276  -0.035183   0.326177  -0.022140  -0.126799  -0.005535  -0.002487   0.077764  -0.385292   0.007625  -0.241994   0.184762   0.103031   0.313349  -0.492388   1.098517   1.276097   0.638730   4.903049   0.022928   0.951278  -0.005645   0.586695  -0.443426  -4.584426   0.356276   0.396975  -1.560674   1.923464  -0.512405  -4.605242   0.024740  -0.991181   0.008597   0.786482   0.333476   4.862531  -0.278260   0.032543  -0.321835   1.338148   0.001920   0.001880  -1.476245  -0.532781   0.000616  -0.422689  -0.000599   0.000270  -0.399737  -0.358380   0.436540   1.570520  -0.002685  -0.000096  -1.870152   0.447036   0.143974   0.483120  -0.001028   0.000776
 -2.376826   0.928017   3.976729  -0.068448   0.512180  -0.024823  -0.230788  -0.026717  -0.020086   0.087962  -0.587837  -0.006979  -0.357848   0.269194   0.156512   0.462595  -0.686891   2.429331   1.872506   1.019707   7.997245   0.035516   1.395446  -0.006933   0.880292  -0.530060  -5.704231   0.525698   0.519731  -3.136855   2.836602  -0.870107  -7.577420   0.038663  -1.457934   0.010874   1.183132   0.351869   6.092360  -0.369771   0.048902  -0.622092   2.001374   0.003338   0.002597  -2.142342  -0.775407  -0.005056  -0.636153  -0.001049   0.000281  -0.528237  -0.518019   0.809360   2.340817  -0.004646   0.000231  -2.714512   0.650836   0.215235   0.665874  -0.001521   0.000995
 -2.376935   0.928627   3.977283  -0.096078   0.691193  -0.022386  -0.353873  -0.053692  -0.049587   0.074941  -0.785314  -0.034182  -0.471353   0.347957   0.207423   0.607530  -0.857667   4.004544   2.438850   1.437587  11.333633   0.046266   1.812194  -0.007556   1.161647  -0.585809  -6.230894   0.686683   0.613352  -4.954941   3.715096  -1.290316 -10.801207   0.050753  -1.898401   0.012247   1.564943   0.325921   6.701927  -0.448621   0.064207  -0.991348   2.626698   0.004734   0.003015  -2.764451  -1.002732  -0.013597  -0.837474  -0.001494   0.000270  -0.625446  -0.665677   1.257724   3.068752  -0.006582   0.000588  -3.503181   0.841590   0.285427   0.827689  -0.001946   0.001121
 -2.377092   0.928707   3.977905  -0.118283   0.856535  -0.014454  -0.488203  -0.083852  -0.094469   0.045381  -0.975315  -0.082106  -0.581371   0.421383   0.258138   0.749425  -1.011564   5.704048   2.974261   1.890295  14.833031   0.054608   2.201911  -0.007751   1.430720  -0.624088  -6.354674   0.840575   0.687600  -6.920203   4.530009  -1.754567 -14.093924   0.060188  -2.313311   0.012914   1.932716   0.265650   6.841102  -0.519696   0.078655  -1.413228   3.213197   0.005973   0.003168  -3.345643  -1.215638  -0.024436  -1.026935  -0.001893   0.000256  -0.697341  -0.802937   1.765687   3.754786  -0.008348   0.000909  -4.239879   1.019849   0.354178   0.971422  -0.002284   0.001169
 -2.377322   0.928085   3.978565  -0.136333   1.005525  -0.000968  -0.627662  -0.115440  -0.159045   0.005329  -1.156394  -0.156904  -0.686900   0.489749   0.308412   0.889051  -1.152971   7.448111   3.477502   2.375769  18.441979   0.060484   2.565557  -0.007681   1.687677  -0.652546  -6.215291   0.988448   0.749083  -8.962208   5.262216  -2.241688 -17.313444   0.066731  -2.703704   0.013042   2.286243   0.177378   6.637135  -0.585729   0.092513  -1.872522   3.762117   0.006979   0.003118  -3.888627  -1.414924  -0.037060  -1.204519  -0.002221   0.000243  -0.748436  -0.930992   2.320481   4.400824  -0.009870   0.001172  -4.927980   1.186246   0.421190   1.099715  -0.002533   0.001159
 -2.377515   0.926032   3.978635  -0.003789   1.082018   0.019046  -0.705860  -0.122887  -0.178814  -0.157675  -1.293726  -0.301941  -0.951987   0.419513   0.286805   1.059691  -1.157035   8.596398   4.081688   2.843104  21.887050   0.067670   3.052534  -0.009283   1.861822  -0.682534  -4.992949   1.165533   0.808466 -10.219200   5.788039  -2.813426 -20.503117   0.068815  -3.082934   0.012942   2.530770  -0.012530   5.418008  -0.843794  -0.076050  -2.302006   4.067136   0.006660   0.002129  -4.051921  -1.672978   0.132385  -1.102747  -0.001559  -0.000113  -0.913589  -0.895528   2.807439   4.585279  -0.008698   0.001213  -5.359904   1.347498   0.468373   1.275483  -0.002863   0.001369
 -2.377693   0.922771   3.978354   0.148754   1.138247   0.038998  -0.720245  -0.125379  -0.195994  -0.304957  -1.412738  -0.443642  -1.213186   0.348380   0.254746   1.199745  -1.104474   9.477413   4.608279   3.345403  24.973192   0.070224   3.521961  -0.010621   2.042978  -0.632802  -3.849089   1.314286   0.823317 -11.177548   6.241952  -3.392640 -23.336876   0.067767  -3.446073   0.012865   2.763318  -0.248243   4.303473  -1.149120  -0.243239  -2.689740   4.293415   0.006035   0.001393  -4.202149  -1.916975   0.289510  -0.981828  -0.001025  -0.000466  -1.133254  -0.859553   3.238967   4.672539  -0.007297   0.001083  -5.766190   1.498111   0.513770   1.440639  -0.002989   0.001472
 -2.377852   0.918431   3.977878   0.296433   1.184098   0.056262  -0.688835  -0.123545  -0.210143  -0.420134  -1.518123  -0.573847  -1.452011   0.281787   0.221917   1.311406  -1.019981  10.166577   5.064312   3.861250  27.755090   0.069674   3.970047  -0.011589   2.222866  -0.533620  -2.934118   1.437154   0.808275 -11.928077   6.633053  -3.966676 -25.874845   0.064785  -3.791468   0.012695   2.987741  -0.505178   3.436288  -1.462738  -0.397927  -3.035225   4.481329   0.005346   0.000862  -4.342767  -2.145135   0.435557  -0.870416  -0.000647  -0.000704  -1.377382  -0.828833   3.621519   4.724873  -0.006018   0.000926  -6.146924   1.637838   0.557085   1.590423  -0.002952   0.001486
 -2.378051   0.918796   3.977793   0.337387   1.399361   0.050688  -0.618590  -0.182833  -0.216357  -0.487278  -1.662225  -0.690003  -1.663840   0.217501   0.191312   1.423004  -0.947523  11.060674   5.468162   4.357538  30.398753   0.068332   4.380437  -0.011999   2.394806  -0.473849  -2.270996   1.539434   0.766458 -12.857684   6.965485  -4.536544 -28.274503   0.061796  -4.113605   0.012106   3.204085  -0.727428   2.839524  -1.710602  -0.476540  -3.047348   4.905530   0.004355   0.001112  -4.248910  -2.259444   0.773956  -0.652878  -0.001121  -0.000556  -1.688306  -0.720667   3.674123   5.119969  -0.004905   0.001965  -6.036292   1.844255   0.433705   1.823311  -0.002222   0.002300
 -2.378233   0.919205   3.977873   0.414309   1.528886   0.076378  -0.591040  -0.188491  -0.248928  -0.562285  -1.765452  -0.804988  -1.859581   0.159892   0.159914   1.525273  -0.875755  11.736853   5.821988   4.845308  32.856691   0.065340   4.772536  -0.012040   2.560130  -0.370126  -1.492716   1.641566   0.742882 -13.559413   7.258568  -5.074955 -30.497479   0.057823  -4.419926   0.011353   3.409293  -0.988963   2.145200  -1.929697  -0.614821  -3.089560   5.209682   0.003509   0.000820  -4.283608  -2.461061   0.904576  -0.529429  -0.001020  -0.000683  -1.893962  -0.675972   3.668695   5.348268  -0.003939   0.001955  -6.251532   1.966592   0.455730   1.996730  -0.001830   0.002310
